<?xml version="1.0" standalone="no"?><!DOCTYPE svg PUBLIC "-//W3C//DTD SVG 1.1//EN" "http://www.w3.org/Graphics/SVG/1.1/DTD/svg11.dtd"><svg width="240" height="140" style="display: block;" version="1.1" xmlns="http://www.w3.org/2000/svg" xmlns:xlink="http://www.w3.org/1999/xlink"><defs xmlns="http://www.w3.org/1999/xhtml"><style type="text/css"><![CDATA[
 html, head, body { padding: 0px; margin: 0px; }
body { font-family: calibri, helvetica, arial, sans-serif; }]]></style></defs><g transform="matrix(1 0 0 -1 -80 220)"><g><path d="M 100 100 C 250 300 150 0 300 200" stroke="black" fill="none"></path><g><circle cx="100" cy="100" r="3" fill="white" stroke="black"></circle><circle cx="107.15230904893087" cy="109.40446757155648" r="3" fill="white" stroke="black"></circle><circle cx="114.44708200805708" cy="118.69833375731746" r="3" fill="white" stroke="black"></circle><circle cx="121.91586060642861" cy="127.85308660500408" r="3" fill="white" stroke="black"></circle><circle cx="129.60212803843467" cy="136.82562634089783" r="3" fill="white" stroke="black"></circle><circle cx="137.5699012583807" cy="145.5483593619325" r="3" fill="white" stroke="black"></circle><circle cx="145.91963217290387" cy="153.9059616715394" r="3" fill="white" stroke="black"></circle><circle cx="154.81835273464662" cy="161.67250257442817" r="3" fill="white" stroke="black"></circle><circle cx="164.56966956695118" cy="168.32075367685226" r="3" fill="white" stroke="black"></circle><circle cx="175.63420908409788" cy="172.24541557477346" r="3" fill="white" stroke="black"></circle><circle cx="186.78647585558795" cy="169.33041848759274" r="3" fill="white" stroke="black"></circle><circle cx="194.42283156046207" cy="160.41138880448833" r="3" fill="white" stroke="black"></circle><circle cx="200" cy="150.00000000000006" r="3" fill="white" stroke="black"></circle><circle cx="205.57716843953787" cy="139.58861119551182" r="3" fill="white" stroke="black"></circle><circle cx="213.2135241444119" cy="130.66958151240735" r="3" fill="white" stroke="black"></circle><circle cx="224.36579091590198" cy="127.75458442522653" r="3" fill="white" stroke="black"></circle><circle cx="235.43033043304877" cy="131.6792463231477" r="3" fill="white" stroke="black"></circle><circle cx="245.18164726535332" cy="138.32749742557175" r="3" fill="white" stroke="black"></circle><circle cx="254.0803678270961" cy="146.09403832846056" r="3" fill="white" stroke="black"></circle><circle cx="262.43009874161936" cy="154.45164063806757" r="3" fill="white" stroke="black"></circle><circle cx="270.39787196156533" cy="163.17437365910217" r="3" fill="white" stroke="black"></circle><circle cx="278.0841393935714" cy="172.14691339499592" r="3" fill="white" stroke="black"></circle><circle cx="285.5529179919429" cy="181.30166624268247" r="3" fill="white" stroke="black"></circle><circle cx="292.84769095106907" cy="190.59553242844345" r="3" fill="white" stroke="black"></circle><circle cx="300" cy="200" r="3" fill="white" stroke="black"></circle></g></g></g></svg>