<?xml version="1.0" standalone="no"?><!DOCTYPE svg PUBLIC "-//W3C//DTD SVG 1.1//EN" "http://www.w3.org/Graphics/SVG/1.1/DTD/svg11.dtd"><svg width="240" height="140" style="display: block;" version="1.1" xmlns="http://www.w3.org/2000/svg" xmlns:xlink="http://www.w3.org/1999/xlink"><defs xmlns="http://www.w3.org/1999/xhtml"><style type="text/css"><![CDATA[
 html, head, body { padding: 0px; margin: 0px; }
body { font-family: calibri, helvetica, arial, sans-serif; }]]></style></defs><g transform="matrix(1 0 0 -1 -80 220)"><g><path d="M 100 100 C 250 300 150 0 300 200" stroke="black" fill="none"></path><g><circle cx="100" cy="100" r="3" fill="white" stroke="black"></circle><circle cx="117.48408564814815" cy="122.4681712962963" r="3" fill="white" stroke="black"></circle><circle cx="132.5810185185185" cy="140.16203703703704" r="3" fill="white" stroke="black"></circle><circle cx="145.5078125" cy="153.515625" r="3" fill="white" stroke="black"></circle><circle cx="156.48148148148147" cy="162.96296296296296" r="3" fill="white" stroke="black"></circle><circle cx="165.71903935185185" cy="168.93807870370372" r="3" fill="white" stroke="black"></circle><circle cx="173.4375" cy="171.875" r="3" fill="white" stroke="black"></circle><circle cx="179.8538773148148" cy="172.20775462962965" r="3" fill="white" stroke="black"></circle><circle cx="185.1851851851852" cy="170.37037037037035" r="3" fill="white" stroke="black"></circle><circle cx="189.6484375" cy="166.796875" r="3" fill="white" stroke="black"></circle><circle cx="193.46064814814815" cy="161.9212962962963" r="3" fill="white" stroke="black"></circle><circle cx="196.83883101851853" cy="156.17766203703704" r="3" fill="white" stroke="black"></circle><circle cx="200" cy="150" r="3" fill="white" stroke="black"></circle><circle cx="203.1611689814815" cy="143.82233796296296" r="3" fill="white" stroke="black"></circle><circle cx="206.53935185185185" cy="138.0787037037037" r="3" fill="white" stroke="black"></circle><circle cx="210.3515625" cy="133.203125" r="3" fill="white" stroke="black"></circle><circle cx="214.8148148148148" cy="129.62962962962962" r="3" fill="white" stroke="black"></circle><circle cx="220.1461226851852" cy="127.79224537037038" r="3" fill="white" stroke="black"></circle><circle cx="226.5625" cy="128.125" r="3" fill="white" stroke="black"></circle><circle cx="234.28096064814815" cy="131.06192129629628" r="3" fill="white" stroke="black"></circle><circle cx="243.51851851851853" cy="137.03703703703704" r="3" fill="white" stroke="black"></circle><circle cx="254.4921875" cy="146.484375" r="3" fill="white" stroke="black"></circle><circle cx="267.41898148148147" cy="159.83796296296293" r="3" fill="white" stroke="black"></circle><circle cx="282.51591435185185" cy="177.53182870370372" r="3" fill="white" stroke="black"></circle><circle cx="300" cy="200" r="3" fill="white" stroke="black"></circle></g></g></g></svg>