<?xml version="1.0" standalone="no"?><!DOCTYPE svg PUBLIC "-//W3C//DTD SVG 1.1//EN" "http://www.w3.org/Graphics/SVG/1.1/DTD/svg11.dtd"><svg width="300" height="300" version="1.1" xmlns="http://www.w3.org/2000/svg" xmlns:xlink="http://www.w3.org/1999/xlink"><defs xmlns="http://www.w3.org/1999/xhtml"><style type="text/css"><![CDATA[
html, head, body { margin: 0px; height: 100%; }
.elm-overlay { position: fixed; top: 0px; left: 0px; width: 100%; height: 100%; color: white; pointer-events: none; font-family: "Trebuchet MS", "Lucida Grande", "Bitstream Vera Sans", "Helvetica Neue", sans-serif; }
.elm-overlay-resume { width: 100%; height: 100%; cursor: pointer; text-align: center; pointer-events: auto; background-color: rgba(200, 200, 200, 0.701961); }
.elm-overlay-resume-words { position: absolute; top: calc(50% - 40px); font-size: 80px; line-height: 80px; height: 80px; width: 100%; }
.elm-mini-controls { position: fixed; bottom: 0px; right: 6px; border-radius: 4px; background-color: rgb(61, 61, 61); font-family: monospace; pointer-events: auto; }
.elm-mini-controls-button { padding: 6px; cursor: pointer; text-align: center; min-width: 24ch; }
.elm-mini-controls-import-export { padding: 4px 0px; font-size: 0.8em; text-align: center; background-color: rgb(50, 50, 50); }
.elm-overlay-message { position: absolute; width: 600px; height: 100%; padding-left: calc(50% - 300px); padding-right: calc(50% - 300px); background-color: rgba(200, 200, 200, 0.701961); pointer-events: auto; }
.elm-overlay-message-title { font-size: 36px; height: 80px; background-color: rgb(50, 50, 50); padding-left: 22px; vertical-align: middle; line-height: 80px; }
.elm-overlay-message-details { padding: 8px 20px; overflow-y: auto; max-height: calc(100% - 156px); background-color: rgb(61, 61, 61); }
.elm-overlay-message-details-type { font-size: 1.5em; }
.elm-overlay-message-details ul { list-style-type: none; padding-left: 20px; }
.elm-overlay-message-details ul ul { list-style-type: disc; padding-left: 2em; }
.elm-overlay-message-details li { margin: 8px 0px; }
.elm-overlay-message-buttons { height: 60px; line-height: 60px; text-align: right; background-color: rgb(50, 50, 50); }
.elm-overlay-message-buttons button { margin-right: 20px; }]]></style></defs><g transform="matrix(1 0 0 -1 0 300)"><g><g stroke="black" stroke-width="1"><circle cx="200" cy="150" r="2" fill="black"/><polyline points="194,150 206,150"/><polyline points="200,144 200,156"/></g><g transform="matrix(1 0 0 1 0 0)"><circle cx="150" cy="150" r="10" fill="orange" stroke="blue" stroke-width="2"/></g><g transform="matrix(0.8660254037844387 0.49999999999999994 -0.49999999999999994 0.8660254037844387 101.79491924311223 -79.9038105676658)"><circle cx="150" cy="150" r="10" fill="orange" stroke="blue" stroke-width="2"/></g><g transform="matrix(0.5000000000000001 0.8660254037844386 -0.8660254037844386 0.5000000000000001 229.90381056766577 -98.20508075688775)"><circle cx="150" cy="150" r="10" fill="orange" stroke="blue" stroke-width="2"/></g><g transform="matrix(6.123233995736766e-17 1 -1 6.123233995736766e-17 350 -50)"><circle cx="150" cy="150" r="10" fill="orange" stroke="blue" stroke-width="2"/></g><g transform="matrix(-0.4999999999999998 0.8660254037844387 -0.8660254037844387 -0.4999999999999998 429.90381056766574 51.79491924311222)"><circle cx="150" cy="150" r="10" fill="orange" stroke="blue" stroke-width="2"/></g><g transform="matrix(-0.8660254037844385 0.5000000000000003 -0.5000000000000003 -0.8660254037844385 448.20508075688775 179.9038105676657)"><circle cx="150" cy="150" r="10" fill="orange" stroke="blue" stroke-width="2"/></g><g transform="matrix(-1 1.2246467991473532e-16 -1.2246467991473532e-16 -1 400 300)"><circle cx="150" cy="150" r="10" fill="orange" stroke="blue" stroke-width="2"/></g><g transform="matrix(-0.8660254037844388 -0.4999999999999997 0.4999999999999997 -0.8660254037844388 298.2050807568878 379.9038105676658)"><circle cx="150" cy="150" r="10" fill="orange" stroke="blue" stroke-width="2"/></g><g transform="matrix(-0.5000000000000004 -0.8660254037844385 0.8660254037844385 -0.5000000000000004 170.0961894323343 398.20508075688775)"><circle cx="150" cy="150" r="10" fill="orange" stroke="blue" stroke-width="2"/></g><g transform="matrix(-1.8369701987210297e-16 -1 1 -1.8369701987210297e-16 50.00000000000003 350)"><circle cx="150" cy="150" r="10" fill="orange" stroke="blue" stroke-width="2"/></g></g></g></svg>